<svg width="1400" height="300" xmlns="http://www.w3.org/2000/svg" xmlns:svg="http://www.w3.org/2000/svg">
 <!-- Created with SVG-edit - http://svg-edit.googlecode.com/ -->
 <defs>
  <pattern patternUnits="userSpaceOnUse" height="10" width="10" id="smallGrid">
   <path id="svg_1" stroke-width="0.5" stroke="gray" fill="none" d="m10,0l-10,0l0,10"/>
  </pattern>
  <pattern patternUnits="userSpaceOnUse" height="100" width="100" id="grid">
   <rect id="svg_3" fill="url(#smallGrid)" height="100" width="100"/>
   <path id="svg_4" stroke="gray" fill="none" d="m100,0l-100,0l0,100"/>
  </pattern>
 </defs>
 <g>
  <title>Layer 2</title>
  <rect width="100%" height="100%" fill="url(#grid)" id="svg_18"/>
  <rect id="svg_3" stroke="gray" fill="none" stroke-width="2" height="100%" width="100%"/>
 </g>
 <g>
  <title>Layer 1</title>
  <line stroke="#337ab7" id="svg_2" y2="30" x2="700" y1="270" x1="700" stroke-linecap="round" stroke-linejoin="null" stroke-dasharray="null" stroke-width="10" fill="none"/>
  <line stroke="#337ab7" id="svg_5" y2="30" x2="100" y1="30" x1="700" stroke-linecap="round" stroke-linejoin="null" stroke-dasharray="null" stroke-width="10" fill="none"/>
  <line stroke="#337ab7" id="svg_6" y2="30" x2="1300" y1="30" x1="700" stroke-linecap="null" stroke-linejoin="null" stroke-dasharray="null" stroke-width="10" fill="none"/>
  <line stroke="#337ab7" id="svg_7" y2="270" x2="300" y1="40" x1="110" stroke-linecap="round" stroke-linejoin="null" stroke-width="10" fill="none"/>
  <line stroke="#337ab7" id="svg_8" y2="270" x2="1100" y1="40" x1="1290" stroke-linecap="null" stroke-linejoin="null" stroke-dasharray="null" stroke-width="10" fill="none"/>
  <line stroke="#337ab7" id="svg_9" y2="270" x2="1290" y1="270" x1="110" stroke-linecap="round" stroke-linejoin="null" stroke-dasharray="null" stroke-width="10" fill="none"/>
  <line id="svg_10" y2="40" x2="300" y1="270" x1="300" stroke-linecap="null" stroke-linejoin="null" stroke-dasharray="null" stroke-width="10" fill="none" stroke="#337ab7"/>
  <line id="svg_11" y2="40" x2="500" y1="270" x1="500" stroke-linecap="null" stroke-linejoin="null" stroke-dasharray="null" stroke-width="10" fill="none" stroke="#337ab7"/>
  <line id="svg_12" y2="40" x2="900" y1="270" x1="900" stroke-linecap="null" stroke-linejoin="null" stroke-dasharray="null" stroke-width="10" fill="none" stroke="#337ab7"/>
  <line id="svg_13" y2="40" x2="1100" y1="270" x1="1100" stroke-linecap="null" stroke-linejoin="null" stroke-dasharray="null" stroke-width="10" fill="none" stroke="#337ab7"/>
  <line id="svg_14" y2="40" x2="490" y1="270" x1="300" stroke-linecap="null" stroke-linejoin="null" stroke-dasharray="null" stroke-width="10" fill="none" stroke="#337ab7"/>
  <line id="svg_15" y2="270" x2="700" y1="30" x1="500" stroke-linecap="null" stroke-linejoin="null" stroke-dasharray="null" stroke-width="10" fill="none" stroke="#337ab7"/>
  <line id="svg_16" y2="40" x2="890" y1="270" x1="700" stroke-linecap="null" stroke-linejoin="null" stroke-dasharray="null" stroke-width="10" fill="none" stroke="#337ab7"/>
  <line id="svg_17" y2="270" x2="1100" y1="30" x1="900" stroke-linecap="null" stroke-linejoin="null" stroke-dasharray="null" stroke-width="10" fill="none" stroke="#337ab7"/>
  <ellipse ry="10" rx="10" id="svg_19" cy="270" cx="100" stroke-linecap="round" stroke-linejoin="null" stroke-width="10" stroke="#337ab7" fill="#337ab7"/>
  <ellipse stroke="#337ab7" ry="10" rx="10" id="svg_20" cy="30" cx="300" stroke-linecap="round" stroke-linejoin="null" stroke-width="10" fill="#337ab7"/>
  <ellipse id="svg_22" stroke="#337ab7" ry="10" rx="10" cy="270" cx="700" stroke-linecap="round" stroke-linejoin="null" stroke-width="10" fill="#337ab7"/>
  <ellipse id="svg_23" stroke="#337ab7" ry="10" rx="10" cy="270" cx="500" stroke-linecap="round" stroke-linejoin="null" stroke-width="10" fill="#337ab7"/>
  <ellipse id="svg_24" stroke="#337ab7" ry="10" rx="10" cy="30" cx="500" stroke-linecap="round" stroke-linejoin="null" stroke-width="10" fill="#337ab7"/>
  <ellipse id="svg_25" stroke="#337ab7" ry="10" rx="10" cy="30" cx="700" stroke-linecap="round" stroke-linejoin="null" stroke-width="10" fill="#337ab7"/>
  <ellipse id="svg_26" stroke="#337ab7" ry="10" rx="10" cy="30" cx="100" stroke-linecap="round" stroke-linejoin="null" stroke-width="10" fill="#337ab7"/>
  <ellipse id="svg_27" stroke="#337ab7" ry="10" rx="10" cy="270" cx="300" stroke-linecap="round" stroke-linejoin="null" stroke-width="10" fill="#337ab7"/>
  <ellipse id="svg_28" stroke="#337ab7" ry="10" rx="10" cy="270" cx="900" stroke-linecap="round" stroke-linejoin="null" stroke-width="10" fill="#337ab7"/>
  <ellipse id="svg_29" stroke="#337ab7" ry="10" rx="10" cy="30" cx="900" stroke-linecap="round" stroke-linejoin="null" stroke-width="10" fill="#337ab7"/>
  <ellipse id="svg_30" stroke="#337ab7" ry="10" rx="10" cy="30" cx="1100" stroke-linecap="round" stroke-linejoin="null" stroke-width="10" fill="#337ab7"/>
  <ellipse id="svg_31" stroke="#337ab7" ry="10" rx="10" cy="270" cx="1100" stroke-linecap="round" stroke-linejoin="null" stroke-width="10" fill="#337ab7"/>
  <ellipse id="svg_32" stroke="#337ab7" ry="10" rx="10" cy="30" cx="1300" stroke-linecap="round" stroke-linejoin="null" stroke-width="10" fill="#337ab7"/>
  <line y2="30" x2="100" y1="260" x1="100" stroke-linecap="null" stroke-linejoin="null" stroke-dasharray="null" stroke-width="10" fill="none" stroke="#337ab7" id="svg_1"/>
  <line y2="40" x2="1300" y1="270" x1="1300" stroke-linecap="null" stroke-linejoin="null" stroke-dasharray="null" stroke-width="10" fill="none" stroke="#337ab7" id="svg_3"/>
  <ellipse stroke="#337ab7" ry="10" rx="10" cy="270" cx="1300" stroke-linecap="round" stroke-linejoin="null" stroke-width="10" fill="#337ab7" id="svg_4"/>
 </g>
</svg>